<svg width="25" height="25" viewBox="0 0 25 25" fill="none" xmlns="http://www.w3.org/2000/svg">
<g clip-path="url(#clip0)">
<path d="M17.7734 8.40142C18.6364 8.40142 19.3359 7.70186 19.3359 6.83892C19.3359 5.97598 18.6364 5.27643 17.7734 5.27643C16.9105 5.27643 16.2109 5.97598 16.2109 6.83892C16.2109 7.70186 16.9105 8.40142 17.7734 8.40142Z" fill="#2E4A7D"/>
<path d="M24.7303 8.10239C24.2088 6.77456 23.2525 4.8587 21.6583 3.27199C20.0696 1.69074 18.1741 0.761839 16.8637 0.260962C15.425 -0.288889 13.7902 0.0576917 12.6989 1.14387L8.86403 4.96075C7.72726 6.09214 7.39963 7.83305 8.0487 9.29276C8.24997 9.74549 8.46886 10.1883 8.70275 10.6161L0.286034 19.0328C0.10288 19.216 0 19.4644 0 19.7234V24.0202C0 24.5596 0.437205 24.9968 0.976559 24.9968H5.27342C5.81277 24.9968 6.24998 24.5596 6.24998 24.0202V22.2624L8.00778 22.2624C8.54713 22.2624 8.98434 21.8252 8.98434 21.2858V19.5281H10.7421C11.2815 19.5281 11.7187 19.0909 11.7187 18.5515C11.7187 18.0122 11.2815 17.575 10.7421 17.575H8.00778C7.46843 17.575 7.03122 18.0122 7.03122 18.5515V20.3093L5.27342 20.3093C4.73406 20.3093 4.29686 20.7465 4.29686 21.2859V23.0437H1.95312V20.1279L10.613 11.468C10.9312 11.1499 10.9908 10.6556 10.7574 10.2709C10.419 9.71312 10.1081 9.11703 9.83346 8.49921C9.51124 7.77456 9.6754 6.90889 10.242 6.34497L14.0768 2.52814C14.6243 1.98327 15.4445 1.80949 16.1665 2.08537C17.3004 2.51877 18.9345 3.31652 20.2805 4.65626C21.6348 6.0041 22.4592 7.66245 22.9124 8.81625C23.1951 9.53637 23.0233 10.3545 22.4746 10.9006L18.5935 14.7635C18.0283 15.326 17.1847 15.4904 16.4443 15.1825C15.8336 14.9285 15.2421 14.6267 14.6865 14.2857C14.2268 14.0035 13.6255 14.1475 13.3434 14.6071C13.0612 15.0668 13.2051 15.6682 13.6648 15.9503C14.307 16.3444 14.9898 16.6928 15.6942 16.9858C17.1659 17.5981 18.8448 17.269 19.9713 16.1479L23.8524 12.2849C24.9532 11.1893 25.2978 9.54755 24.7303 8.10239Z" fill="#2E4A7D"/>
</g>
<defs>
<clipPath id="clip0">
<rect width="25" height="25" fill="white"/>
</clipPath>
</defs>
</svg>
