<svg xmlns="http://www.w3.org/2000/svg" width="512" height="512" style=""><rect id="backgroundrect" width="100%" height="100%" x="0" y="0" fill="none" stroke="none"/><title>Eye Off</title><g class="currentLayer" style=""><title>Layer 1</title><path d="M432,448.8264462351799 a15.92,15.92 0 0 1 -11.31,-4.69 l-352,-352 a16,16 0 0 1 22.62,-22.62 l352,352 A16,16 0 0 1 432,448.8264462351799 zM255.66,384.8264462351799 c-41.49,0 -81.5,-12.28 -118.92,-36.5 c-34.07,-22 -64.74,-53.51 -88.7,-91 v-0.08000000000000002 c19.94,-28.57 41.78,-52.73 65.24,-72.21 a2,2 0 0 0 0.14,-2.94 L93.5,162.2064462351799 a2,2 0 0 0 -2.71,-0.12000000000000001 c-24.92,21 -48.05,46.76 -69.08,76.92 a31.92,31.92 0 0 0 -0.6400000000000001,35.54 c26.41,41.33 60.4,76.14 98.28,100.65 C162,402.8264462351799 207.9,416.8264462351799 255.66,416.8264462351799 a239.13,239.13 0 0 0 75.8,-12.58 a2,2 0 0 0 0.77,-3.31 l-21.58,-21.58 a4,4 0 0 0 -3.83,-1 a204.8,204.8 0 0 1 -51.16,6.47 zM490.84,239.4264462351799 c-26.46,-40.92 -60.79,-75.68 -99.27,-100.53 C349,111.3764462351799 302,96.8264462351799 255.66,96.8264462351799 a227.34,227.34 0 0 0 -74.89,12.83 a2,2 0 0 0 -0.7500000000000001,3.31 l21.55,21.55 a4,4 0 0 0 3.88,1 a192.82,192.82 0 0 1 50.21,-6.69 c40.69,0 80.58,12.43 118.55,37 c34.71,22.4 65.74,53.88 89.76,91 a0.13,0.13 0 0 1 0,0.16000000000000003 a310.72,310.72 0 0 1 -64.12,72.73 a2,2 0 0 0 -0.15000000000000002,2.95 l19.9,19.89 a2,2 0 0 0 2.7,0.13 a343.49,343.49 0 0 0 68.64,-78.48 a32.2,32.2 0 0 0 -0.1,-34.78 z" id="svg_1" class="" fill="#2e4a7d" fill-opacity="1" stroke="#2e4a7d" stroke-opacity="1"/><path d="M256 160a95.88 95.88 0 00-21.37 2.4 2 2 0 00-1 3.38l112.59 112.56a2 2 0 003.38-1A96 96 0 00256 160zM165.78 233.66a2 2 0 00-3.38 1 96 96 0 00115 115 2 2 0 001-3.38z" id="svg_2" class="" fill-opacity="1" fill="#2e4a7d" stroke-opacity="1" stroke="#2e4a7d"/></g></svg>